<svg width="15" height="20" fill="none" xmlns="http://www.w3.org/2000/svg"><path d="M13.798 10.37c-.178-.397-.423-.787-.781-1.239-.905-1.133-1.18-3.66-1.184-3.685a.305.305 0 00-.211-.257.311.311 0 00-.325.087c-1.079 1.203-.625 3.061-.38 3.803.067.204.14.443.193.685.398 1.96-.37 2.849-.552 3.028-.174.048-.294.024-.404-.094-.38-.415-.506-1.776-.328-3.549.037-.36.027-.685-.025-.988-.375-2.179-1.75-3.576-2.1-4.066-.962-1.419-1.06-3.78-1.063-3.8a.307.307 0 00-.478-.24c-1.606 1.088-1.468 3.71-1.245 5.173.053.34.154.685.328 1.121.623 1.56-.122 3.576-.128 3.594-.006.018-.013.033-.016.052-.095.497-.254.794-.432.794a.213.213 0 01-.058-.01c-.218-.045-.331-.275-.334-.475C4.263 7.719 1.66 6.849 1.633 6.84a.306.306 0 00-.368.424c.03.064.129.343.061 1.328-.058.884-.22 1.76-.481 2.6A12.63 12.63 0 00.33 15.2c.476 5.16 7.921 6.065 12.34 3.157.484-.318.88-.682 1.171-1.082 1.63-2.242.671-5.287-.043-6.906zM2.473 15.3c.009.167-.12.31-.289.319h-.018a.305.305 0 01-.306-.285 10.89 10.89 0 01.012-1.41.31.31 0 01.328-.28.306.306 0 01.285.323c-.034.48-.04.915-.012 1.334zm.15-2.684a.304.304 0 01-.304.267c-.012 0-.024 0-.04-.003a.306.306 0 01-.266-.337l.147-1.17a.31.31 0 01.343-.263.304.304 0 01.267.34l-.147 1.166zM11.725 4.145a.303.303 0 01-.256-.345c.019-.123.13-.753.43-1.07a.309.309 0 01.433-.014.3.3 0 01.014.428c-.127.135-.236.519-.272.748a.306.306 0 01-.35.253zM.55 5.655C.493 5.43.347 5.058.208 4.937a.3.3 0 01-.029-.428.308.308 0 01.433-.028c.33.287.502.903.534 1.024a.303.303 0 01-.22.368.307.307 0 01-.374-.218z" fill="#FF6B09"/></svg>