<svg xmlns="http://www.w3.org/2000/svg" viewBox="0 0 16 16" width="16" height="16">
	<style>
		tspan { white-space:pre }
		.shp0 { fill: #ff6b09 } 
	</style>
	<path id="Layer" fill-rule="evenodd" class="shp0" d="M13.04 8.3C13.61 9.59 14.38 12.03 13.07 13.82C12.84 14.14 12.52 14.43 12.14 14.69C8.6 17.01 2.64 16.29 2.26 12.16C2.26 11.89 2.26 11.62 2.27 11.35C2.28 11.08 2.31 10.81 2.34 10.54C2.38 10.27 2.42 10 2.48 9.74C2.53 9.48 2.6 9.21 2.68 8.95C2.88 8.28 3.01 7.58 3.06 6.87C3.12 6.09 3.04 5.86 3.01 5.81C2.99 5.77 2.98 5.72 2.99 5.67C3 5.63 3.02 5.58 3.05 5.55C3.08 5.51 3.12 5.48 3.17 5.47C3.21 5.46 3.26 5.46 3.31 5.47C3.33 5.48 5.41 6.18 5.42 8.24C5.42 8.4 5.51 8.59 5.69 8.62C5.69 8.62 5.69 8.63 5.7 8.63C5.7 8.63 5.71 8.63 5.71 8.63C5.71 8.63 5.72 8.63 5.72 8.63C5.73 8.63 5.73 8.63 5.73 8.63C5.88 8.63 6 8.39 6.08 8C6.08 7.98 6.09 7.97 6.09 7.95C6.1 7.94 6.69 6.33 6.19 5.08C6.06 4.73 5.97 4.45 5.93 4.18C5.75 3.01 5.64 0.91 6.93 0.04C6.96 0.02 7.01 0.01 7.05 0C7.09 0 7.14 0.01 7.18 0.03C7.21 0.05 7.25 0.08 7.27 0.11C7.29 0.15 7.31 0.19 7.31 0.24C7.31 0.25 7.39 2.14 8.16 3.28C8.44 3.67 9.54 4.79 9.84 6.53C9.88 6.77 9.89 7.03 9.86 7.32C9.72 8.74 9.82 9.83 10.12 10.16C10.21 10.25 10.31 10.27 10.45 10.23C10.59 10.09 11.21 9.38 10.89 7.81C10.85 7.62 10.79 7.43 10.73 7.26C10.54 6.67 10.17 5.18 11.04 4.22C11.05 4.2 11.07 4.19 11.09 4.18C11.11 4.16 11.13 4.15 11.16 4.15C11.18 4.14 11.2 4.14 11.23 4.14C11.25 4.14 11.27 4.14 11.3 4.15C11.32 4.16 11.34 4.17 11.36 4.18C11.38 4.19 11.4 4.21 11.41 4.23C11.43 4.25 11.44 4.27 11.45 4.29C11.46 4.31 11.46 4.33 11.47 4.36C11.47 4.38 11.69 6.4 12.41 7.3C12.7 7.67 12.9 7.98 13.04 8.3L13.04 8.3ZM3.98 12.24C3.96 11.91 3.96 11.56 3.99 11.17C3.99 11.14 3.99 11.11 3.97 11.08C3.96 11.05 3.95 11.02 3.93 11C3.91 10.97 3.88 10.95 3.85 10.94C3.82 10.93 3.79 10.92 3.76 10.92C3.73 10.91 3.7 10.92 3.67 10.93C3.64 10.94 3.61 10.95 3.58 10.97C3.56 10.99 3.54 11.02 3.52 11.05C3.51 11.08 3.5 11.11 3.5 11.14C3.49 11.23 3.49 11.33 3.48 11.42C3.48 11.51 3.48 11.61 3.47 11.7C3.47 11.8 3.47 11.89 3.48 11.99C3.48 12.08 3.48 12.17 3.49 12.27C3.49 12.3 3.5 12.33 3.51 12.36C3.52 12.38 3.54 12.41 3.57 12.43C3.59 12.45 3.61 12.47 3.64 12.48C3.67 12.49 3.7 12.5 3.73 12.5L3.75 12.5C3.88 12.49 3.99 12.37 3.98 12.24L3.98 12.24ZM4.22 9.16C4.22 9.13 4.22 9.1 4.21 9.06C4.2 9.03 4.19 9 4.17 8.98C4.15 8.95 4.12 8.93 4.09 8.92C4.07 8.9 4.03 8.89 4 8.89C3.97 8.88 3.94 8.89 3.91 8.9C3.88 8.9 3.85 8.92 3.82 8.94C3.8 8.96 3.78 8.98 3.76 9.01C3.74 9.04 3.73 9.07 3.73 9.1L3.61 10.03C3.61 10.07 3.61 10.1 3.62 10.13C3.63 10.16 3.64 10.19 3.66 10.21C3.68 10.24 3.71 10.26 3.73 10.27C3.76 10.29 3.79 10.3 3.82 10.3C3.84 10.31 3.85 10.31 3.86 10.31C3.88 10.31 3.91 10.3 3.94 10.29C3.97 10.28 4 10.27 4.02 10.25C4.04 10.23 4.06 10.2 4.07 10.18C4.09 10.15 4.09 10.12 4.1 10.09L4.22 9.16ZM11.38 3.32C11.35 3.31 11.32 3.3 11.29 3.28C11.26 3.27 11.24 3.25 11.22 3.22C11.2 3.19 11.19 3.17 11.18 3.13C11.17 3.1 11.17 3.07 11.18 3.04C11.19 2.94 11.28 2.44 11.52 2.18C11.54 2.16 11.57 2.14 11.6 2.13C11.63 2.12 11.66 2.11 11.69 2.11C11.72 2.11 11.75 2.11 11.78 2.12C11.81 2.13 11.84 2.15 11.87 2.17C11.89 2.19 11.91 2.22 11.92 2.25C11.93 2.28 11.94 2.31 11.94 2.34C11.94 2.37 11.94 2.41 11.93 2.44C11.92 2.46 11.9 2.49 11.88 2.52C11.78 2.62 11.69 2.93 11.66 3.11C11.65 3.15 11.64 3.18 11.63 3.2C11.61 3.23 11.59 3.25 11.56 3.27C11.54 3.29 11.51 3.3 11.47 3.31C11.44 3.32 11.41 3.32 11.38 3.32L11.38 3.32ZM2.44 4.52C2.39 4.34 2.28 4.05 2.17 3.95C2.14 3.93 2.12 3.9 2.11 3.87C2.09 3.85 2.08 3.82 2.08 3.78C2.08 3.75 2.08 3.72 2.1 3.69C2.11 3.66 2.12 3.63 2.14 3.61C2.16 3.58 2.19 3.56 2.22 3.55C2.25 3.54 2.28 3.53 2.31 3.52C2.34 3.52 2.38 3.53 2.41 3.54C2.44 3.55 2.47 3.56 2.49 3.58C2.75 3.81 2.89 4.31 2.92 4.4C2.92 4.43 2.93 4.47 2.92 4.5C2.92 4.53 2.91 4.56 2.89 4.59C2.87 4.62 2.85 4.64 2.83 4.66C2.8 4.68 2.77 4.69 2.74 4.7C2.71 4.71 2.68 4.71 2.65 4.7C2.61 4.7 2.58 4.69 2.56 4.67C2.53 4.66 2.5 4.64 2.48 4.61C2.46 4.58 2.45 4.56 2.44 4.52L2.44 4.52Z" />
</svg>